<svg width="68" height="68" viewBox="0 0 68 68" fill="none" xmlns="http://www.w3.org/2000/svg">
<path fill-rule="evenodd" clip-rule="evenodd" d="M34.0002 67C52.2256 67 67.0002 52.2254 67.0002 34C67.0002 15.7746 52.2256 1 34.0002 1C15.7748 1 1.00024 15.7746 1.00024 34C1.00024 52.2254 15.7748 67 34.0002 67ZM34.0002 68C52.7779 68 68.0002 52.7777 68.0002 34C68.0002 15.2223 52.7779 0 34.0002 0C15.2226 0 0.000244141 15.2223 0.000244141 34C0.000244141 52.7777 15.2226 68 34.0002 68Z" fill="white"/>
<path fill-rule="evenodd" clip-rule="evenodd" d="M44.2273 33.9999L30.2737 47.9535L29.5666 47.2464L42.8131 33.9999L29.5666 20.7535L30.2737 20.0464L44.2273 33.9999Z" fill="white"/>
</svg>
