<svg width="67" height="67" viewBox="0 0 67 67" fill="none" xmlns="http://www.w3.org/2000/svg">
<path fill-rule="evenodd" clip-rule="evenodd" d="M33.5 66C51.4493 66 66 51.4493 66 33.5C66 15.5507 51.4493 1 33.5 1C15.5507 1 1 15.5507 1 33.5C1 51.4493 15.5507 66 33.5 66ZM33.5 67C52.0015 67 67 52.0015 67 33.5C67 14.9985 52.0015 0 33.5 0C14.9985 0 0 14.9985 0 33.5C0 52.0015 14.9985 67 33.5 67Z" fill="#47093E"/>
<path fill-rule="evenodd" clip-rule="evenodd" d="M49.5801 33.5L25.4601 19.5743L25.4601 47.4257L49.5801 33.5ZM47.5801 33.5L26.4601 21.3064L26.4601 45.6937L47.5801 33.5Z" fill="#47093E"/>
</svg>
